<svg width="201" height="28" viewBox="0 0 201 28" fill="none" xmlns="http://www.w3.org/2000/svg">
<path d="M134.093 7.39408C134.218 6.9525 134.459 6.76683 134.982 6.76683H138.179C138.285 6.76905 138.389 6.79707 138.482 6.8485C138.576 6.89992 138.655 6.97321 138.714 7.06205C138.772 7.1509 138.808 7.25265 138.819 7.35856C138.83 7.46447 138.814 7.57137 138.774 7.67008L132.189 26.6295C132.149 26.7771 132.059 26.9065 131.936 26.9965C131.812 27.0866 131.661 27.1319 131.508 27.125H128.575C128.031 27.125 127.735 26.6721 127.912 26.2079L130.077 20.9955H129.073C128.706 20.9955 128.476 20.8035 128.359 20.4585L123.969 7.80682C123.753 7.1896 124.094 6.76683 124.642 6.76683H127.751C128.188 6.76683 128.476 6.86343 128.629 7.35645L131.389 17.1328L134.093 7.39408Z" fill="#72035D"/>
<path d="M122.595 7.61864L119.915 8.51938C119.772 8.56629 119.617 8.56134 119.477 8.50539C119.336 8.44944 119.22 8.34605 119.149 8.21328C118.108 6.30015 116.442 5.05568 114.019 5.05568C110.662 5.05568 108.142 7.8294 108.142 11.1689C108.142 14.5084 110.695 17.2382 114.019 17.2382C116.546 17.2382 118.258 15.9599 119.219 14.1622C119.47 13.6867 119.745 13.5763 120.264 13.7733L122.852 14.7656C122.935 14.7969 123.01 14.8449 123.073 14.9067C123.136 14.9684 123.185 15.0425 123.218 15.1244C123.25 15.2047 123.265 15.2908 123.262 15.3771C123.259 15.4635 123.238 15.5482 123.201 15.6262C121.5 19.209 118.047 21.4358 114.019 21.4358C108.454 21.4358 103.927 16.828 103.927 11.1639C103.927 5.49978 108.454 0.890717 114.019 0.890717C117.863 0.890717 121.285 3.03844 123.022 6.51719C123.277 7.04784 123.07 7.45807 122.595 7.61864Z" fill="#72035D"/>
<path d="M73.3468 6.44568C72.1162 6.44568 70.6659 7.26864 69.7765 8.09536L69.3776 8.47171V7.48817C69.3776 6.91612 69.0238 6.76934 68.5672 6.76934H65.9214C65.8274 6.76529 65.7335 6.78105 65.646 6.81561C65.5585 6.85018 65.4792 6.90276 65.4133 6.96996C65.3474 7.03715 65.2964 7.11746 65.2635 7.20566C65.2307 7.29385 65.2167 7.38797 65.2226 7.4819V20.4635C65.2226 20.9139 65.4936 21.1887 65.9089 21.1887H68.6813C68.7725 21.1888 68.8629 21.1708 68.9471 21.1356C69.0312 21.1004 69.1075 21.0487 69.1714 20.9836C69.2353 20.9185 69.2856 20.8413 69.3193 20.7565C69.353 20.6718 69.3694 20.5811 69.3675 20.4899V14.8597C69.3675 12.2741 70.6735 10.8452 73.2477 10.8452C73.7621 10.8452 74.0067 10.5642 74.0067 10.1816V7.14695C74.0067 6.67651 73.7357 6.44568 73.3468 6.44568Z" fill="#72035D"/>
<path d="M26.1948 6.50714C22.351 6.50714 19.2223 9.86044 19.2223 13.979C19.2223 18.0975 22.351 21.4496 26.1948 21.4496C27.6079 21.4617 28.9795 20.9728 30.0663 20.0696L30.4552 19.746V20.5752C30.4571 20.7387 30.5229 20.895 30.6384 21.0108C30.7539 21.1266 30.9101 21.1926 31.0736 21.1949H33.8875C33.9825 21.1949 34.0766 21.1762 34.1643 21.1398C34.2521 21.1034 34.3318 21.0501 34.3989 20.9828C34.466 20.9156 34.5192 20.8358 34.5554 20.748C34.5917 20.6602 34.6103 20.5661 34.6101 20.4711V7.53584C34.6101 7.08171 34.383 6.76934 33.8649 6.76934H31.2668C30.6973 6.76934 30.4614 7.02024 30.4614 7.52831V8.24966C29.325 7.12836 27.7913 6.50197 26.1948 6.50714ZM27.073 17.7061C24.983 17.7061 23.524 16.1744 23.524 13.979C23.524 11.8187 25.0156 10.2531 27.073 10.2531C29.1731 10.2531 30.7562 11.8551 30.7562 13.979C30.7537 16.0665 29.1342 17.7061 27.0705 17.7061H27.073Z" fill="#72035D"/>
<path d="M81.5099 6.50714C77.6661 6.50714 74.5374 9.86044 74.5374 13.979C74.5374 18.0975 77.6661 21.4496 81.5099 21.4496C82.9233 21.4616 84.2953 20.9727 85.3826 20.0696L85.7702 19.746V20.5351C85.7774 20.7084 85.8497 20.8727 85.9727 20.995C86.0958 21.1174 86.2605 21.1888 86.4339 21.1949H89.2941C89.4605 21.1949 89.62 21.1288 89.7377 21.0112C89.8553 20.8936 89.9214 20.734 89.9214 20.5677V7.39534C89.9216 7.31434 89.9057 7.23411 89.8749 7.15923C89.844 7.08435 89.7986 7.0163 89.7414 6.95897C89.6842 6.90164 89.6162 6.85616 89.5414 6.82513C89.4666 6.79409 89.3864 6.77812 89.3054 6.77812H86.4201C86.3322 6.7725 86.2442 6.78578 86.162 6.81704C86.0797 6.8483 86.0051 6.89683 85.9431 6.95936C85.8812 7.02189 85.8334 7.09696 85.8029 7.17952C85.7724 7.26208 85.76 7.35022 85.7665 7.43799V8.25844C84.6341 7.13614 83.1042 6.50668 81.5099 6.50714ZM82.3881 17.7061C80.2968 17.7061 78.8378 16.1744 78.8378 13.979C78.8378 11.8187 80.3307 10.2531 82.3881 10.2531C84.4869 10.2531 86.07 11.8551 86.07 13.979C86.0688 16.0665 84.458 17.7061 82.3868 17.7061H82.3881Z" fill="#72035D"/>
<path d="M58.7958 19.6406V20.6166C58.7961 20.7682 58.8565 20.9135 58.9637 21.0207C59.0709 21.128 59.2162 21.1883 59.3678 21.1887H62.0939C62.5518 21.1887 62.8466 20.9679 62.8466 20.4472V7.4681C62.8466 7.03153 62.5505 6.76934 62.0863 6.76934H59.6187C59.0554 6.76934 58.7958 7.03655 58.7958 7.6475V14.1973C58.7958 16.9196 57.3744 17.9182 55.6921 17.9182C53.6949 17.9182 52.6411 16.6323 52.6411 14.1998L52.5972 7.51075C52.5972 7.07042 52.3664 6.76683 51.8282 6.76683H49.1047C48.5514 6.76683 48.3093 7.02651 48.3093 7.5509V13.9765C48.3093 18.5467 50.7757 21.3869 54.9733 21.3869C56.855 21.3869 58.176 20.5802 58.7506 19.6306C58.753 19.6258 58.7569 19.622 58.7617 19.6197C58.7665 19.6174 58.7719 19.6168 58.7771 19.6179C58.7823 19.6191 58.787 19.6219 58.7903 19.626C58.7937 19.6302 58.7956 19.6353 58.7958 19.6406Z" fill="#72035D"/>
<path d="M4.65619 9.17549C4.65597 9.17026 4.65749 9.1651 4.6605 9.16081C4.66351 9.15653 4.66786 9.15335 4.67286 9.15178C4.67785 9.15021 4.68323 9.15033 4.68815 9.15212C4.69308 9.15391 4.69727 9.15728 4.70009 9.16169L12.6386 20.8499C12.7083 20.9573 12.8044 21.0449 12.9178 21.1042C13.0312 21.1636 13.158 21.1927 13.286 21.1887H16.9918C17.4773 21.1887 17.7445 20.8863 17.7445 20.4673V2.02605C17.7487 1.93252 17.7332 1.83914 17.6989 1.75203C17.6646 1.66491 17.6123 1.58603 17.5453 1.52053C17.4784 1.45504 17.3984 1.40442 17.3106 1.37199C17.2228 1.33955 17.1291 1.32603 17.0357 1.33231H14.2896C13.8731 1.33231 13.582 1.63339 13.582 2.12139V15.0428C13.5825 15.0484 13.581 15.0539 13.5779 15.0585C13.5747 15.0631 13.57 15.0664 13.5646 15.0679C13.5593 15.0694 13.5536 15.0689 13.5485 15.0667C13.5434 15.0644 13.5393 15.0604 13.5369 15.0554L4.97985 1.67103C4.91308 1.56814 4.82163 1.48359 4.71382 1.42509C4.60602 1.36658 4.48529 1.33598 4.36263 1.33607H1.30665C0.727065 1.33607 0.5 1.5945 0.5 2.12892V20.4247C0.5 20.8474 0.775991 21.1887 1.22636 21.1887H3.90599C4.37141 21.1887 4.65869 20.8826 4.65869 20.4171L4.65619 9.17549Z" fill="#72035D"/>
<path d="M146.156 21.4245C142.159 21.4245 138.856 18.1377 138.791 14.0969C138.779 13.097 138.965 12.1045 139.338 11.1766C139.71 10.2487 140.263 9.40366 140.964 8.69C141.62 8.01113 142.405 7.47047 143.273 7.09989C144.141 6.72931 145.075 6.5363 146.019 6.53224C149.079 6.53224 151.592 8.04769 152.919 10.6909C152.949 10.7488 152.965 10.8124 152.968 10.8773C152.971 10.9423 152.96 11.0071 152.935 11.0673C152.91 11.1275 152.872 11.1816 152.824 11.2262C152.777 11.2707 152.72 11.3046 152.658 11.3257L149.754 12.3042C149.695 12.3236 149.634 12.3337 149.572 12.3343C149.476 12.3334 149.382 12.3091 149.298 12.2637C149.214 12.2182 149.142 12.1529 149.089 12.0734C148.385 11.0309 147.428 10.5028 146.241 10.5028C145.788 10.5002 145.338 10.5882 144.919 10.7617C144.5 10.9352 144.12 11.1907 143.801 11.5131C143.482 11.8355 143.23 12.2183 143.061 12.6392C142.892 13.0601 142.809 13.5105 142.816 13.9639C142.816 15.8896 144.353 17.4565 146.241 17.4565C147.437 17.4565 148.42 16.9158 149.085 15.8934C149.133 15.8123 149.201 15.7454 149.283 15.6997C149.365 15.654 149.458 15.6312 149.552 15.6337C149.698 15.6385 149.842 15.6691 149.977 15.724L152.376 16.5332C152.479 16.5601 152.575 16.6098 152.657 16.6786C152.738 16.7474 152.803 16.8336 152.847 16.9309C152.882 17.0142 152.898 17.1042 152.893 17.1943C152.888 17.2844 152.863 17.3723 152.82 17.4515C152.177 18.6584 151.216 19.6666 150.042 20.3669C148.867 21.0672 147.523 21.4329 146.156 21.4245Z" fill="#72035D"/>
<path d="M97.9929 21.1887C98.4457 21.1887 98.6929 20.8913 98.6929 20.4761V17.6974C98.6929 17.2357 98.4696 16.9798 97.8787 16.9723H97.0608C96.5677 16.9723 96.2955 16.6925 96.2955 16.1844V2.14146C96.2955 1.72747 96.0634 1.41385 95.5729 1.41385H92.872C92.3225 1.41385 92.0741 1.65722 92.0741 2.13519V16.6938C92.0741 19.8827 93.2358 21.1836 96.081 21.1836L97.9929 21.1887Z" fill="#72035D"/>
<path d="M175.131 17.7864C175.491 18.0699 175.479 18.514 175.112 18.9368C173.684 20.5865 172.095 21.4458 168.943 21.4458C164.851 21.4458 161.52 18.0938 161.52 13.974C161.52 9.85417 164.851 6.44693 168.943 6.50213C173.459 6.56611 176.344 9.91313 176.344 14.1546C176.344 14.6564 176.08 14.9073 175.579 14.9073H165.691C165.805 16.5532 167.099 17.7927 168.934 17.7927C170.67 17.7927 171.561 16.9948 172.143 16.3613C172.472 16.0025 172.851 15.9975 173.188 16.2584L175.126 17.7864M169.068 9.77263C167.376 9.77263 166.172 10.7474 165.924 12.1324H172.09C171.804 10.8139 170.687 9.77263 169.073 9.77263H169.068Z" fill="#72035D"/>
<path d="M160.555 21.1887C161.008 21.1887 161.254 20.8913 161.254 20.4761V17.6974C161.254 17.2357 161.032 16.9798 160.44 16.9723H159.623C159.129 16.9723 158.858 16.6925 158.858 16.1844V2.14146C158.858 1.72747 158.625 1.41385 158.134 1.41385H155.433C154.885 1.41385 154.636 1.65722 154.636 2.13519V16.6938C154.636 19.8827 155.797 21.1836 158.643 21.1836L160.555 21.1887Z" fill="#72035D"/>
<path d="M47.3345 19.894C46.8603 20.3168 45.8517 21.3367 43.0291 21.3367C40.9503 21.3367 38.3159 19.8727 38.3347 15.8695V10.5103C38.3343 10.4796 38.3219 10.4502 38.3001 10.4286C38.2782 10.407 38.2487 10.3949 38.218 10.3949H37.089C36.626 10.3949 36.3112 10.1277 36.3112 9.64217L36.3237 7.47563C36.3237 7.09928 36.5395 6.77561 37.0965 6.77561H38.2255C38.2565 6.77561 38.2862 6.76332 38.308 6.74144C38.3299 6.71956 38.3422 6.68989 38.3422 6.65895V2.09253C38.3422 1.60578 38.6094 1.33983 39.0949 1.33983H41.8486C42.2876 1.33983 42.5022 1.55686 42.5022 1.99343V6.65769C42.5022 6.68863 42.5145 6.71831 42.5363 6.74019C42.5582 6.76207 42.5879 6.77436 42.6188 6.77436H45.9909C46.4815 6.77436 46.7549 7.0491 46.7549 7.55717L46.7424 9.61457C46.7424 10.1164 46.4652 10.3936 45.9771 10.3936H42.6063C42.5756 10.3936 42.5461 10.4057 42.5242 10.4273C42.5024 10.4489 42.4899 10.4783 42.4896 10.509V15.586C42.4896 16.7502 43.1595 17.4678 44.2459 17.4678C44.5948 17.4876 44.9404 17.3919 45.2295 17.1956C45.3009 17.1358 45.3836 17.091 45.4727 17.0639C45.5617 17.0368 45.6554 17.0279 45.748 17.0377C45.8406 17.0475 45.9302 17.0759 46.0116 17.1211C46.0931 17.1664 46.1645 17.2275 46.2218 17.3009C46.5981 17.7639 47.4888 18.9381 47.4888 18.9381C47.7096 19.2354 47.6394 19.6218 47.3345 19.894Z" fill="#72035D"/>
<path d="M177.336 17.7789C177.191 17.8862 177.094 18.0453 177.065 18.2227C177.036 18.4001 177.077 18.5819 177.179 18.7298C177.707 19.5264 179.484 21.4496 183.254 21.4496C187.512 21.4496 189.641 19.2103 189.641 16.9534C189.641 14.2161 187.99 12.9152 183.662 11.8564C181.918 11.4298 181.495 11.0861 181.495 10.6897C181.495 10.2631 181.913 9.86421 182.939 9.86421C184.311 9.86421 185.294 10.2318 186.87 11.1325C187.224 11.3345 187.581 11.3621 187.883 10.9544L189.123 9.33857C189.421 8.91455 189.248 8.53694 188.881 8.28228C187.253 7.10138 185.287 6.47866 183.277 6.50715C179.705 6.50715 177.415 8.56077 177.415 11.0924C177.415 13.4458 178.963 14.8885 182.415 15.6927C184.451 16.1669 185.396 16.3701 185.396 16.9911C185.396 17.5054 184.842 17.9947 183.348 17.9947C181.854 17.9947 180.588 17.1165 180.016 16.4993C179.739 16.2032 179.34 16.1669 178.989 16.4479C178.971 16.4629 177.458 17.6823 177.336 17.7776" fill="#72035D"/>
<path d="M195.298 1.51306e-07C194.269 0.000248257 193.263 0.305503 192.408 0.877168C191.553 1.44883 190.887 2.26124 190.493 3.21165C190.1 4.16207 189.997 5.20781 190.198 6.21666C190.399 7.22551 190.894 8.15216 191.622 8.87943C192.349 9.6067 193.276 10.1019 194.285 10.3025C195.294 10.5031 196.339 10.4 197.29 10.0063C198.24 9.61264 199.052 8.94599 199.624 8.09069C200.195 7.23538 200.5 6.22984 200.5 5.20119C200.5 4.51806 200.365 3.84161 200.104 3.21049C199.843 2.57937 199.459 2.00594 198.976 1.52295C198.493 1.03996 197.92 0.656867 197.288 0.395556C196.657 0.134246 195.981 -0.000164618 195.298 1.51306e-07ZM195.298 8.43155C194.659 8.43155 194.034 8.24209 193.503 7.88714C192.972 7.53218 192.558 7.02767 192.313 6.4374C192.069 5.84713 192.005 5.19761 192.129 4.57098C192.254 3.94435 192.562 3.36876 193.013 2.91698C193.465 2.46521 194.041 2.15755 194.667 2.0329C195.294 1.90826 195.944 1.97223 196.534 2.21673C197.124 2.46123 197.629 2.87527 197.984 3.4065C198.338 3.93773 198.528 4.56229 198.528 5.20119C198.528 6.05794 198.188 6.87959 197.582 7.4854C196.976 8.09121 196.154 8.43155 195.298 8.43155Z" fill="#72035D"/>
</svg>
